# xmcd
#
# Track frame offsets: 
#        150
#        15603
#        29125
#        49839
#        62446
#        79450
#        96539
#        109798
#        123282
#        132871
#        146901
#        160363
#        171810
#        188378
#
# Disc length: 2705 seconds
#
# Revision: 1
# Processed by: cddbd v1.5.2PL0 Copyright (c) Steve Scherf et al.
# Submitted via: ExactAudioCopy v1.0b4
#
DISCID=c40a8f0e
DTITLE=Big Jon Atkison - Boogie With You Baby
DYEAR=2014
DGENRE=Blues
TTITLE0=Boogie With You baby
TTITLE1=Natural Born Lover
TTITLE2=Mean Ole Train
TTITLE3=Go Away
TTITLE4=Feel So Worried
TTITLE5=Like Wolf
TTITLE6=Don't Know
TTITLE7=Where'd You Stay
TTITLE8=Throw This Poor Dog A Bone
TTITLE9=Try Me One MoreTime
TTITLE10=Left My Happy Home
TTITLE11=Long Leanie Mama
TTITLE12=It Ain't Right
TTITLE13=Please Help
EXTD=
EXTT0=
EXTT1=
EXTT2=
EXTT3=
EXTT4=
EXTT5=
EXTT6=
EXTT7=
EXTT8=
EXTT9=
EXTT10=
EXTT11=
EXTT12=
EXTT13=
PLAYORDER=
